<mxfile host="app.diagrams.net" modified="2024-03-18T15:40:33.623Z" agent="Mozilla/5.0 (Windows NT 10.0; Win64; x64) AppleWebKit/537.36 (KHTML, like Gecko) Chrome/122.0.0.0 Safari/537.36" etag="8VpUT20km2xx6IUJD6n_" version="24.0.3" type="device">
  <diagram name="Page-1" id="Th_Ncxi2A_59rosMhivW">
    <mxGraphModel dx="1434" dy="746" grid="1" gridSize="10" guides="1" tooltips="1" connect="1" arrows="1" fold="1" page="1" pageScale="1" pageWidth="850" pageHeight="1100" math="0" shadow="0">
      <root>
        <mxCell id="0" />
        <mxCell id="1" parent="0" />
        <mxCell id="cJl3J3E9Ec9oc_TVUQHv-12" style="edgeStyle=orthogonalEdgeStyle;rounded=0;orthogonalLoop=1;jettySize=auto;html=1;exitX=1;exitY=0.5;exitDx=0;exitDy=0;entryX=0;entryY=0.5;entryDx=0;entryDy=0;" edge="1" parent="1" source="cJl3J3E9Ec9oc_TVUQHv-1" target="cJl3J3E9Ec9oc_TVUQHv-2">
          <mxGeometry relative="1" as="geometry" />
        </mxCell>
        <mxCell id="cJl3J3E9Ec9oc_TVUQHv-1" value="&lt;font style=&quot;font-size: 15px;&quot;&gt;&lt;b&gt;Build and Test&lt;/b&gt;&lt;/font&gt;" style="rounded=0;whiteSpace=wrap;html=1;labelPosition=center;verticalLabelPosition=bottom;align=center;verticalAlign=top;" vertex="1" parent="1">
          <mxGeometry x="90" y="140" width="150" height="120" as="geometry" />
        </mxCell>
        <mxCell id="cJl3J3E9Ec9oc_TVUQHv-2" value="&lt;font style=&quot;font-size: 14px;&quot;&gt;&lt;b&gt;Check for vulnerabilities and&amp;nbsp; code quality&lt;/b&gt;&lt;/font&gt;" style="rounded=0;whiteSpace=wrap;html=1;labelPosition=center;verticalLabelPosition=bottom;align=center;verticalAlign=top;" vertex="1" parent="1">
          <mxGeometry x="299" y="140" width="140" height="120" as="geometry" />
        </mxCell>
        <mxCell id="cJl3J3E9Ec9oc_TVUQHv-6" value="" style="sketch=0;html=1;aspect=fixed;strokeColor=none;shadow=0;fillColor=#3B8DF1;verticalAlign=top;labelPosition=center;verticalLabelPosition=bottom;shape=mxgraph.gcp2.biomedical_test_tube" vertex="1" parent="1">
          <mxGeometry x="190" y="146.19999999999996" width="33.36" height="107.6" as="geometry" />
        </mxCell>
        <mxCell id="cJl3J3E9Ec9oc_TVUQHv-7" value="" style="shape=image;html=1;verticalAlign=top;verticalLabelPosition=bottom;labelBackgroundColor=#ffffff;imageAspect=0;aspect=fixed;image=https://cdn1.iconfinder.com/data/icons/ionicons-outline-vol-1/512/build-outline-128.png" vertex="1" parent="1">
          <mxGeometry x="100" y="160" width="80" height="80" as="geometry" />
        </mxCell>
        <mxCell id="cJl3J3E9Ec9oc_TVUQHv-9" value="" style="sketch=0;outlineConnect=0;fontColor=#232F3E;gradientColor=none;fillColor=#8C4FFF;strokeColor=none;dashed=0;verticalLabelPosition=bottom;verticalAlign=top;align=center;html=1;fontSize=12;fontStyle=0;aspect=fixed;pointerEvents=1;shape=mxgraph.aws4.aws_glue_data_quality;" vertex="1" parent="1">
          <mxGeometry x="330" y="165.3" width="78" height="78" as="geometry" />
        </mxCell>
        <mxCell id="cJl3J3E9Ec9oc_TVUQHv-14" value="&lt;font style=&quot;font-size: 14px;&quot;&gt;&lt;b&gt;Deploy&lt;/b&gt;&lt;/font&gt;" style="aspect=fixed;sketch=0;html=1;dashed=0;whitespace=wrap;fillColor=#2875E2;strokeColor=#ffffff;points=[[0.005,0.63,0],[0.1,0.2,0],[0.9,0.2,0],[0.5,0,0],[0.995,0.63,0],[0.72,0.99,0],[0.5,1,0],[0.28,0.99,0]];shape=mxgraph.kubernetes.icon2;prIcon=deploy;labelPosition=center;verticalLabelPosition=bottom;align=center;verticalAlign=top;" vertex="1" parent="1">
          <mxGeometry x="500" y="140" width="125" height="120" as="geometry" />
        </mxCell>
        <mxCell id="cJl3J3E9Ec9oc_TVUQHv-16" style="edgeStyle=orthogonalEdgeStyle;rounded=0;orthogonalLoop=1;jettySize=auto;html=1;exitX=1;exitY=0.5;exitDx=0;exitDy=0;entryX=0.08;entryY=0.502;entryDx=0;entryDy=0;entryPerimeter=0;" edge="1" parent="1" source="cJl3J3E9Ec9oc_TVUQHv-2" target="cJl3J3E9Ec9oc_TVUQHv-14">
          <mxGeometry relative="1" as="geometry" />
        </mxCell>
      </root>
    </mxGraphModel>
  </diagram>
</mxfile>
